<svg xmlns="http://www.w3.org/2000/svg" viewBox="0 0 64 64" role="img">
  <defs>
    <linearGradient id="spark" x1="10" y1="8" x2="54" y2="58" gradientUnits="userSpaceOnUse">
      <stop stop-color="#F54B86"/>
      <stop offset="1" stop-color="#D82467"/>
    </linearGradient>
  </defs>
  <rect x="3" y="3" width="58" height="58" rx="17" fill="url(#spark)"/>
  <path d="M18.2 27.2 16.7 17l9.2 5.2a20.2 20.2 0 0 1 12.2 0l9.2-5.2-1.5 10.2A16.4 16.4 0 0 1 48.5 36c0 10-7.2 15.2-16.5 15.2S15.5 46 15.5 36c0-3.2.9-6.2 2.7-8.8Z" fill="#fff"/>
  <path d="M25.1 35.2c1.6-1.4 3.1-2 4.5-1.5 1 .3 1.7 1 2.4 2.1.7-1.1 1.5-1.8 2.4-2.1 1.4-.5 2.9.1 4.5 1.5-.2 5-2.4 7.5-6.9 7.5s-6.7-2.5-6.9-7.5Z" fill="#E93472"/>
  <circle cx="25.4" cy="31.4" r="1.8" fill="#213142"/>
  <circle cx="38.6" cy="31.4" r="1.8" fill="#213142"/>
  <path d="m50.7 8.3 1.4 4.1 4.1 1.4-4.1 1.4-1.4 4.1-1.4-4.1-4.1-1.4 4.1-1.4 1.4-4.1Z" fill="#FFCA68" stroke="#fff" stroke-width="1.4" stroke-linejoin="round"/>
</svg>
